PathFileType	4	(X/Y/Z)	5_coords_data.trc
DataRate	CameraRate	NumFrames	NumMarkers	Units	OrigDataRate	OrigDataStartFrame	OrigNumFrames
30.0	30.0	8	21	m	30.0	52	62
Frame#	Time	THUMB_TIP	THUMB_IP	THUMB_MCP	THUMB_CMC	INDEX_TIP	INDEX_DIP	INDEX_PIP	INDEX_MCP	MIDDLE_TIP	MIDDLE_DIP	MIDDLE_PIP	MIDDLE_MCP	RING_TIP	RING_DIP	RING_PIP	RING_MCP	PINKY_TIP	PINKY_DIP	PINKY_PIP	PINKY_MCP	WRIST
X1	Y1	Z1	X2	Y2	Z2	X3	Y3	Z3	X4	Y4	Z4	X5	Y5	Z5	X6	Y6	Z6	X7	Y7	Z7	X8	Y8	Z8	X9	Y9	Z9	X10	Y10	Z10	X11	Y11	Z11	X12	Y12	Z12	X13	Y13	Z13	X14	Y14	Z14	X15	Y15	Z15	X16	Y16	Z16	X17	Y17	Z17	X18	Y18	Z18	X19	Y19	Z19	X20	Y20	Z20	X21	Y21	Z21
51	1.7	-0.029277299880981444	-0.17240899658203124	1.0145999755859374	-0.027078500747680666	-0.14814500427246094	1.0238900146484375	-0.0377156982421875	-0.12936000061035155	1.04468994140625	-0.037777099609375	-0.09659739685058594	1.0560999755859375	-0.0045028400421142575	-0.12061799621582031	0.9304990234375	-0.02041629981994629	-0.11850299835205078	0.9457839965820313	-0.03504660034179687	-0.11611900329589844	0.96360498046875	-0.04438520050048828	-0.11188099670410157	0.999427001953125	0.0028003299236297598	-0.09719270324707031	0.9175650024414063	-0.012965100288391113	-0.09640489959716797	0.9349359741210937	-0.03149679946899414	-0.09481590270996093	0.9575269775390625	-0.0444994010925293	-0.09146489715576171	0.9939829711914062	-0.00332679009437561	-0.07522239685058593	0.9215800170898437	-0.018038299560546874	-0.07332289886474609	0.938948974609375	-0.033999401092529295	-0.0722938003540039	0.9604509887695313	-0.042533000946044924	-0.07320050048828125	0.9965609741210938	-0.014039299964904784	-0.048985500335693356	0.9395599975585938	-0.023266599655151366	-0.05021220016479492	0.9574840087890625	-0.030460800170898437	-0.052302799224853515	0.9741599731445313	-0.036086700439453126	-0.056478199005126954	1.0001699829101562	-0.05384920120239258	-0.06558280181884765	1.0688699951171876
52	1.7333333333333334	-0.029507299423217774	-0.17243099975585938	1.0164400024414062	-0.027186599731445313	-0.14808599853515625	1.025489990234375	-0.037907901763916015	-0.129093994140625	1.0458399658203126	-0.0379369010925293	-0.0961438980102539	1.057030029296875	-0.0050598101615905765	-0.12077200317382812	0.9300960083007812	-0.020145299911499024	-0.11862699890136719	0.9462420043945312	-0.03419509887695313	-0.11615599822998048	0.9646110229492187	-0.043655200958251955	-0.1116510009765625	1.0001699829101562	0.0024843699932098388	-0.09666159820556641	0.917197998046875	-0.012647299766540528	-0.09608280181884765	0.9353300170898438	-0.03055179977416992	-0.09461540222167969	0.9584669799804687	-0.0437307014465332	-0.09124500274658204	0.9947020263671875	-0.0032422599792480467	-0.07488649749755859	0.921166015625	-0.01720089912414551	-0.0730719985961914	0.9394920043945313	-0.032583499908447264	-0.0720291976928711	0.9614420166015625	-0.04161520004272461	-0.0729717025756836	0.9973389892578125	-0.01330210018157959	-0.048516799926757816	0.9401019897460937	-0.02215130043029785	-0.04991709899902344	0.9583159790039063	-0.029261899948120118	-0.05213180160522461	0.9751079711914062	-0.03513650131225586	-0.056335899353027345	1.0009600219726562	-0.05404499816894531	-0.06498719787597657	1.06947998046875
53	1.7666666666666666	-0.02935099983215332	-0.1725500030517578	1.0177100219726563	-0.026947299957275392	-0.14809800720214844	1.026699951171875	-0.03783980178833008	-0.12890899658203125	1.04677001953125	-0.03789490127563477	-0.09595670318603515	1.057739990234375	-0.00482873010635376	-0.12077300262451172	0.9303469848632813	-0.019555200576782228	-0.11870700073242188	0.9469609985351563	-0.03321030044555664	-0.11623699951171874	0.96556201171875	-0.04336970138549805	-0.1115469970703125	1.001010009765625	0.002837260007858276	-0.09641580200195313	0.9174089965820312	-0.012017499923706055	-0.09595539855957032	0.9360339965820312	-0.02956329917907715	-0.0945969009399414	0.9593870239257812	-0.04312129974365234	-0.09120259857177734	0.9953560180664063	-0.0031978600025177003	-0.07451249694824219	0.9212479858398438	-0.016664600372314452	-0.07285710144042969	0.9399959716796875	-0.031699600219726565	-0.0718833999633789	0.962135009765625	-0.040982898712158204	-0.07289790344238281	0.9979979858398438	-0.01320419979095459	-0.047832500457763674	0.94060498046875	-0.021892900466918944	-0.049437301635742184	0.9589600219726563	-0.028870500564575196	-0.0518223991394043	0.9757050170898437	-0.03472949981689453	-0.05617020034790039	1.0015399780273437	-0.05393870162963867	-0.06497979736328124	1.069949951171875
54	1.8	-0.028918399810791015	-0.1727989959716797	1.019030029296875	-0.026649099349975586	-0.14829299926757813	1.02781005859375	-0.0376963005065918	-0.12891900634765624	1.047530029296875	-0.03783119964599609	-0.0958584976196289	1.05827001953125	-0.005088129997253418	-0.12097299957275391	0.930041015625	-0.0192273006439209	-0.1189520034790039	0.947208984375	-0.03253450012207031	-0.11649700164794922	0.9661680297851563	-0.04259469985961914	-0.11167900085449219	1.00147998046875	0.003111609935760498	-0.09616049957275391	0.9174229736328126	-0.011392499923706055	-0.09591609954833985	0.9363989868164062	-0.028693700790405275	-0.09466950225830079	0.9600609741210937	-0.04234469985961914	-0.09129769897460938	0.9957750244140625	-0.0026630899906158437	-0.07424430084228516	0.92131201171875	-0.015939900398254395	-0.07269159698486329	0.9403389892578125	-0.030799400329589843	-0.07182340240478516	0.9627449951171875	-0.040344898223876956	-0.07294120025634766	0.99827001953125	-0.012661399841308594	-0.04730970001220703	0.9410889892578125	-0.021398799896240234	-0.049111801147460936	0.9594429931640625	-0.028369400024414064	-0.05164179992675781	0.9762059936523437	-0.03422489929199219	-0.05618569946289063	1.0019600219726563	-0.053993499755859375	-0.06463680267333985	1.0705899658203124
55	1.8333333333333333	-0.02921660041809082	-0.1732030029296875	1.0198699951171875	-0.026725900650024413	-0.14864999389648437	1.028510009765625	-0.03773870086669922	-0.12908599853515626	1.048030029296875	-0.037775001525878905	-0.09594190216064453	1.0586400146484376	-0.005773829936981201	-0.12131800079345703	0.9296699829101562	-0.01944070053100586	-0.11929299926757812	0.9472990112304688	-0.0323557014465332	-0.11681400299072266	0.96652197265625	-0.04252370071411133	-0.11186199951171875	1.0018699951171874	0.002978509902954101	-0.09620880126953125	0.917280029296875	-0.011157099723815917	-0.09611730194091797	0.936573974609375	-0.028153400421142578	-0.09492289733886719	0.960468017578125	-0.042063800811767575	-0.09154409790039063	0.99606201171875	-0.0026389200687408436	-0.07430950164794922	0.9211389770507813	-0.015603099822998047	-0.07279830169677734	0.94047900390625	-0.03026689910888672	-0.07195999908447266	0.9630759887695313	-0.03988779830932617	-0.07314520263671875	0.9986290283203125	-0.012250699996948243	-0.0473666000366211	0.9413189697265625	-0.02095009994506836	-0.049227401733398436	0.9597550048828125	-0.027895700454711913	-0.051794300079345705	0.9765579833984375	-0.03379140090942383	-0.05641279983520508	1.00227001953125	-0.05380160140991211	-0.06470580291748047	1.070800048828125
56	1.8666666666666667	-0.029175399780273437	-0.17344599914550782	1.0201599731445312	-0.026685800552368164	-0.14889300537109376	1.028800048828125	-0.03779019927978516	-0.12925	1.048280029296875	-0.037734699249267575	-0.0961260986328125	1.05881005859375	-0.006640580177307129	-0.1216709976196289	0.92922998046875	-0.019892099380493165	-0.11966200256347656	0.9472550048828124	-0.03245880126953125	-0.11717400360107422	0.96672998046875	-0.04240179824829102	-0.1120979995727539	1.002030029296875	0.002416630029678344	-0.09636579895019531	0.9170430297851563	-0.011536800384521484	-0.09632569885253907	0.9365579833984375	-0.02828529930114746	-0.09517630004882813	0.9606160278320313	-0.042031898498535156	-0.09175599670410156	0.9961710205078125	-0.003265889883041382	-0.07440570068359376	0.9209409790039063	-0.01603350067138672	-0.0729020004272461	0.9404409790039062	-0.03050830078125	-0.07211530303955078	0.963156982421875	-0.03985079956054687	-0.07336740112304688	0.9986649780273438	-0.01268120002746582	-0.04760020065307617	0.9413079833984375	-0.02123970031738281	-0.049453399658203126	0.9598070068359374	-0.0280531005859375	-0.05201160049438477	0.976625	-0.033773601531982424	-0.056645599365234375	1.0022999877929688	-0.05384960174560547	-0.06488420104980469	1.0710899658203126
57	1.9	-0.028937999725341796	-0.17360499572753907	1.0205399780273436	-0.02658650016784668	-0.14907200622558595	1.0290400390625	-0.037702598571777345	-0.12935299682617188	1.0484100341796876	-0.03784120178222656	-0.09621430206298828	1.0588900146484375	-0.006770609855651855	-0.1218489990234375	0.9289180297851563	-0.019745000839233397	-0.11989800262451172	0.94727099609375	-0.032095298767089844	-0.11737699890136719	0.9669509887695312	-0.042145099639892575	-0.11225399780273437	1.0021199951171875	0.0026501600742340086	-0.0963489990234375	0.917051025390625	-0.011225500106811524	-0.09647530364990234	0.9366069946289063	-0.02790719985961914	-0.09536869812011718	0.9607860107421875	-0.04178900146484375	-0.09190010070800782	0.9963170166015625	-0.0031261498928070067	-0.07430549621582032	0.9208480224609376	-0.01579959964752197	-0.07288739776611328	0.9404329833984375	-0.030224000930786133	-0.07216729736328124	0.963281005859375	-0.03970240020751953	-0.07348590087890625	0.9988049926757813	-0.012842000007629395	-0.04751200103759766	0.9412520141601562	-0.02130270004272461	-0.04944979858398438	0.9597969970703125	-0.028064800262451173	-0.05206549835205078	0.9766729736328125	-0.033723499298095705	-0.056771198272705076	1.0023599853515626	-0.053902698516845704	-0.06495400238037109	1.07102001953125
58	1.9333333333333333	-0.029099700927734375	-0.1736840057373047	1.020739990234375	-0.026591999053955078	-0.14911000061035157	1.0292099609375	-0.03771820068359375	-0.1293350067138672	1.048489990234375	-0.03784830093383789	-0.09616159820556641	1.0589000244140625	-0.007131669998168945	-0.12196600341796875	0.9284869995117188	-0.019736299514770506	-0.12003199768066407	0.947177978515625	-0.03178849983215332	-0.1175	0.9670490112304687	-0.04195819854736328	-0.11230500030517578	1.0021099853515625	0.002404099941253662	-0.09617720031738282	0.916635986328125	-0.011159299850463867	-0.09635800170898437	0.93647802734375	-0.027635099411010743	-0.09534020233154297	0.9607949829101563	-0.04144609832763672	-0.09189730072021485	0.9961220092773437	-0.003306169986724853	-0.07416570281982422	0.9204459838867187	-0.015673000335693358	-0.07283509826660156	0.9402960205078125	-0.029856000900268555	-0.07218080139160156	0.9632360229492187	-0.039419601440429684	-0.0734968032836914	0.9987310180664063	-0.01287689971923828	-0.047453399658203124	0.9410980224609375	-0.021165700912475587	-0.04943999862670898	0.9597479858398438	-0.027905799865722655	-0.05206669998168945	0.976698974609375	-0.03347060012817383	-0.056745201110839846	1.0023300170898437	-0.05388850021362305	-0.06486260223388672	1.071030029296875
